<svg width="92" height="92" viewBox="0 0 92 92" fill="none" xmlns="http://www.w3.org/2000/svg">
<g clip-path="url(#clip0_19_67)">
<path d="M74.9429 81.766C74.8896 81.8193 74.783 81.8726 74.7297 81.9792C74.783 81.8726 74.8896 81.8193 74.9429 81.766Z" fill="#91613E"/>
<path d="M73.9307 82.5656C74.1972 82.3524 74.4637 82.1392 74.7302 81.9793C74.4637 82.1392 74.1972 82.3524 73.9307 82.5656C73.8774 82.6189 73.7707 82.6722 73.7174 82.7255L73.6108 82.7788L73.7174 82.7255C73.7707 82.6722 73.8774 82.6189 73.9307 82.5656Z" fill="#91613E"/>
<path d="M73.5041 82.8851L73.3442 82.9917L73.5041 82.8851Z" fill="#91613E"/>
<path d="M72.9176 83.3117C72.9709 83.2584 72.9709 83.2584 73.0242 83.2051C73.0242 83.2584 72.9709 83.2584 72.9176 83.3117L72.811 83.365L72.9176 83.3117Z" fill="#91613E"/>
<path d="M72.8648 83.365C72.7582 83.4183 72.7049 83.4716 72.6516 83.5249C72.7049 83.4716 72.7582 83.4183 72.8648 83.365Z" fill="#91613E"/>
<path d="M71.9049 84.0046C71.7983 84.0579 71.745 84.1112 71.6384 84.1646C71.745 84.1112 71.8516 84.0579 71.9049 84.0046Z" fill="#91613E"/>
<path d="M65.4556 87.6825C64.9759 87.8957 64.5495 88.1089 64.123 88.2688C64.6028 88.1089 65.0292 87.8957 65.4556 87.6825Z" fill="#91613E"/>
<path d="M70.7859 84.751C70.8925 84.6977 70.9991 84.6444 71.0524 84.5911C70.9991 84.6444 70.8925 84.6977 70.7859 84.751Z" fill="#91613E"/>
<path d="M63.803 88.4287C63.9629 88.3754 64.0695 88.3221 64.1228 88.2688C64.0162 88.3221 63.9629 88.3754 63.803 88.4287Z" fill="#91613E"/>
<path d="M69.6127 85.4972L69.8259 85.3373C69.9858 85.2307 70.1457 85.1774 70.2523 85.0708C70.0924 85.1774 69.9858 85.2307 69.8259 85.3373L69.6127 85.4972C69.5594 85.4972 69.5594 85.5505 69.5061 85.5505C69.5594 85.4972 69.5594 85.4972 69.6127 85.4972Z" fill="#91613E"/>
<path d="M75.3162 81.4461C75.2096 81.5527 75.1029 81.606 74.9963 81.7126C75.1029 81.606 75.2096 81.5527 75.3162 81.4461Z" fill="#91613E"/>
<path d="M68.9734 85.8702C69.08 85.8169 69.1866 85.7636 69.2932 85.7103C69.1866 85.7636 69.08 85.8169 68.9734 85.8702L68.9201 85.9235C68.8668 85.9235 68.8668 85.9768 68.8135 85.9768C68.8668 85.9768 68.8668 85.9235 68.9201 85.9235L68.9734 85.8702Z" fill="#91613E"/>
<path d="M65.5623 87.6291L65.9354 87.4159C66.0953 87.3626 66.2552 87.256 66.3618 87.2027C66.2019 87.256 66.042 87.3626 65.9354 87.4159L65.5623 87.6291C65.5623 87.6291 65.5623 87.6824 65.5623 87.6291C65.5623 87.6824 65.5623 87.6291 65.5623 87.6291Z" fill="#91613E"/>
<path d="M62.1508 89.0683C62.4706 88.9617 62.8437 88.8018 63.2701 88.6419C63.3234 88.6419 63.3234 88.6419 63.3767 88.5886C63.3234 88.5886 63.3234 88.5886 63.2701 88.6419C62.8437 88.8018 62.4706 88.9617 62.1508 89.0683L61.9376 89.1216H61.8843H61.9376L62.1508 89.0683Z" fill="#91613E"/>
<path d="M0.479492 52.6629C0.479492 52.7162 0.479492 52.8228 0.532795 52.8761V52.9294V52.8761C0.479492 52.8228 0.479492 52.7695 0.479492 52.6629Z" fill="#91613E"/>
<path d="M0.266602 51.117C0.266602 51.1703 0.266602 51.2236 0.266602 51.2769C0.319904 51.2236 0.266602 51.1703 0.266602 51.117Z" fill="#91613E"/>
<path d="M0.106769 49.3581V49.4114C0.106769 49.4114 0.106769 49.4114 0.106769 49.3581C0.106769 49.1982 0.0534668 48.985 0.0534668 48.8251C0.106769 49.0383 0.106769 49.1982 0.106769 49.3581Z" fill="#91613E"/>
<path d="M24.0396 30.5422C24.0396 30.4889 24.0929 30.4356 24.0929 30.4356C24.0396 30.4356 24.0396 30.4889 24.0396 30.5422Z" fill="#91613E"/>
<path d="M66.4678 87.2026C67.1607 86.8828 67.8003 86.5097 68.44 86.1366C67.8003 86.5097 67.1607 86.8828 66.4678 87.2026Z" fill="#91613E"/>
<path d="M75.956 80.913C75.8494 80.9663 75.7961 81.0729 75.6895 81.1262L75.5295 81.2861L75.6895 81.1262C75.7961 81.0729 75.9027 80.9663 75.956 80.913Z" fill="#91613E"/>
<path d="M30.9688 71.9582C34.9131 76.1691 39.7103 79.4738 45.1472 81.5526C46.7996 82.1922 48.4519 82.7253 50.1576 83.0984C48.4519 82.672 46.7996 82.1922 45.1472 81.5526C39.657 79.4205 34.8598 76.1691 30.9688 71.9582Z" fill="#91613E"/>
<path d="M39.1238 13.3789C34.593 16.0973 30.6487 19.7752 27.5571 24.1993C26.4378 25.7984 25.4783 27.4507 24.6255 29.2097C25.4783 27.504 26.4378 25.7984 27.5571 24.1993C30.6487 19.8285 34.593 16.1506 39.1238 13.3789Z" fill="#91613E"/>
<path d="M9.86095 22.3869C3.62457 28.57 0.159907 36.7786 0 45.5202V45.6268V45.7867C0 45.84 0 45.8933 0 45.8933C0 45.84 0 45.7867 0 45.7867C0 45.7334 0 45.6801 0 45.6268V45.5202C0.159907 36.7786 3.62457 28.57 9.86095 22.3869C16.0973 16.2571 24.3592 12.8458 33.1541 12.8458C34.54 12.8458 35.9258 12.9524 37.3117 13.1123C35.9258 12.9524 34.54 12.8458 33.1541 12.8458C24.3592 12.8458 16.0973 16.2571 9.86095 22.3869Z" fill="#91613E"/>
<path d="M76.969 80.0068C77.0756 79.9002 77.1289 79.8469 77.2355 79.7936C77.1822 79.8469 77.0756 79.9002 76.969 80.0068L76.8624 80.1134L76.8091 80.1667L76.8624 80.1134L76.969 80.0068Z" fill="#91613E"/>
<path d="M78.2481 78.8344C78.1948 78.8877 78.1415 78.941 78.0882 78.9943C78.0349 79.0476 77.9283 79.1542 77.875 79.2075C77.9283 79.1542 78.0349 79.0476 78.0882 78.9943C78.0882 78.941 78.1948 78.8877 78.2481 78.8344Z" fill="#91613E"/>
<path d="M77.5552 79.474C77.5019 79.5273 77.3953 79.5807 77.342 79.6873C77.3953 79.634 77.4486 79.5273 77.5552 79.474Z" fill="#91613E"/>
<path d="M0.533024 53.0358V52.9292C0.533024 52.8759 0.533024 52.7693 0.479722 52.716V52.6627C0.479722 52.6094 0.479722 52.5561 0.479722 52.5028V52.3962V52.3429V52.2896V52.2363C0.479722 52.0764 0.426419 51.9165 0.426419 51.7566C0.426419 51.5967 0.373117 51.4901 0.373117 51.3302C0.373117 51.2769 0.373117 51.2236 0.373117 51.1703C0.373117 51.0103 0.319815 50.8504 0.319815 50.6905C0.319815 50.5839 0.319815 50.424 0.266512 50.3174V50.2108C0.266512 50.1575 0.266512 50.1042 0.266512 50.0509C0.266512 49.9976 0.266512 49.9443 0.266512 49.891C0.266512 49.8377 0.266512 49.8377 0.266512 49.7844C0.266512 49.7311 0.266512 49.7311 0.266512 49.6778C0.266512 49.6245 0.266512 49.5712 0.266512 49.5179V49.4646C0.266512 49.3047 0.21321 49.0915 0.21321 48.9315C0.21321 48.8249 0.21321 48.7716 0.21321 48.665C0.21321 48.5584 0.21321 48.5051 0.21321 48.3985C0.21321 48.3985 0.21321 48.3985 0.21321 48.3452V48.2919V48.2386V48.1853C0.21321 48.0787 0.21321 47.9721 0.21321 47.8655C0.21321 47.8122 0.21321 47.7589 0.21321 47.7589C0.21321 47.5457 0.21321 47.3858 0.21321 47.2259C0.21321 47.1726 0.21321 47.1726 0.21321 47.1193V47.066C0.21321 46.9061 0.21321 46.7462 0.21321 46.6395V46.5329V46.4796V46.3197C0 46.1598 0 46.1598 0 46.1065C0 46.0532 0 46.0532 0 45.9999C0 45.9466 0 45.9466 0 45.8933C0 45.84 0 45.7867 0 45.7867V45.6268V45.5202C0.106605 36.7786 3.62457 28.57 9.86095 22.4402C16.0973 16.3105 24.3592 12.8991 33.1541 12.8991C34.54 12.8991 35.9258 13.0057 37.3117 13.1656C37.9513 13.2189 38.5377 13.3255 39.1773 13.4321C34.6466 16.1506 30.7022 19.8284 27.6107 24.2525C26.4913 25.8516 25.5319 27.504 24.679 29.263C24.4658 29.6361 24.3059 30.0625 24.146 30.4356C24.146 30.4889 24.0927 30.5422 24.0927 30.5422C21.9606 35.3927 20.8412 40.6164 20.8412 45.9999C20.8412 53.8354 23.1866 61.351 27.664 67.8006C28.6767 69.2931 29.7961 70.6789 31.022 71.9582C34.9664 76.1691 39.7636 79.4738 45.2005 81.5526C46.8528 82.1923 48.5052 82.7253 50.2109 83.0984C53.0359 83.7913 55.9676 84.1112 58.9525 84.1112C65.8818 84.1112 72.5446 82.2456 78.3546 78.8342C78.3013 78.8875 78.248 78.9408 78.1947 78.9941C78.1414 79.0474 78.0348 79.154 77.9815 79.2073L77.9282 79.2606C77.8748 79.3139 77.7682 79.3672 77.7149 79.4738C77.6616 79.5272 77.555 79.5805 77.5017 79.6871C77.5017 79.6871 77.5017 79.6871 77.4484 79.7404C77.3418 79.7937 77.2885 79.9003 77.1819 79.9536L77.0753 80.0602L77.022 80.1135C76.9154 80.2201 76.8088 80.3267 76.6489 80.4333C76.489 80.5399 76.3824 80.6465 76.2758 80.7531C76.2225 80.8064 76.1692 80.8064 76.1692 80.8597C76.0626 80.913 76.0093 81.0196 75.9027 81.0729L75.7428 81.2328L75.6361 81.3394L75.5828 81.3927L75.5295 81.446C75.4229 81.5526 75.3163 81.6059 75.2097 81.7126C75.1564 81.7659 75.0498 81.8192 74.9965 81.9258C74.73 82.139 74.4635 82.3522 74.2503 82.5121C74.197 82.5654 74.0904 82.6187 74.0371 82.672L73.9305 82.7253L73.8772 82.7786C73.8772 82.7786 73.8772 82.7786 73.8239 82.7786L73.664 82.8852L73.6107 82.9385L73.3974 83.0984L73.3441 83.1517C73.2908 83.205 73.2908 83.205 73.2375 83.2583L73.1842 83.3116C73.1309 83.3649 73.0243 83.4182 72.971 83.4715L72.9177 83.5248C72.7045 83.6847 72.5446 83.7913 72.3314 83.9513C72.2248 84.0046 72.1715 84.0579 72.0649 84.1112L72.0116 84.1645C71.905 84.2711 71.7451 84.3244 71.6385 84.431C71.5852 84.431 71.5852 84.4843 71.5319 84.4843C71.4253 84.5376 71.3186 84.5909 71.2654 84.6442C71.1054 84.7508 70.9988 84.8041 70.8389 84.9107C70.679 85.0173 70.5724 85.0706 70.4125 85.1772L70.1993 85.3371C70.146 85.3371 70.146 85.3904 70.0927 85.3904C70.0394 85.3904 69.9861 85.4437 69.9328 85.4437C69.8795 85.4437 69.8795 85.497 69.8262 85.497C69.7196 85.5503 69.613 85.6036 69.5064 85.6569L69.4531 85.7102C69.3998 85.7102 69.3998 85.7635 69.3465 85.7635C69.2399 85.8168 69.1333 85.8701 69.08 85.9234C69.08 85.9234 69.0799 85.9234 69.0266 85.9234C68.387 86.2966 67.6941 86.6164 67.0545 86.9895H67.0012C66.8412 87.0428 66.6813 87.1494 66.5747 87.2027L65.562 87.6291C65.562 87.6291 65.562 87.6291 65.5087 87.6291C65.029 87.8423 64.6025 88.0555 64.1761 88.2154C64.0695 88.2687 63.9629 88.3221 63.8563 88.3221H63.803H63.7497L63.5898 88.3754C63.5365 88.3754 63.4832 88.4287 63.3766 88.4287C63.3233 88.4287 63.3233 88.4287 63.27 88.482C62.8436 88.6419 62.4704 88.8018 62.1506 88.9084L61.9374 88.9617H61.8841L61.6709 89.015C61.0846 89.2282 60.5516 89.4414 59.9119 89.6013C59.9119 89.6013 59.9119 89.6013 59.8586 89.6013C59.752 89.6546 59.6454 89.6546 59.5388 89.7079C59.4322 89.7612 59.3256 89.7612 59.219 89.8145C59.1657 89.8145 59.0591 89.8678 59.0058 89.8678C58.7393 89.9211 58.5261 90.0277 58.2596 90.081C58.2063 90.081 58.2063 90.081 58.153 90.081C58.153 90.4008 58.0997 90.4008 58.0463 90.4008H57.993H57.9397C57.46 90.5075 56.9803 90.6674 56.4473 90.774C56.1808 90.8273 55.861 90.8806 55.5944 90.9872C55.1147 91.0938 54.5817 91.2004 54.102 91.307C53.9421 91.3603 53.7289 91.3603 53.5689 91.4136C53.409 91.4669 53.1958 91.4669 53.0359 91.5202C52.9293 91.5202 52.876 91.5202 52.7694 91.5735C52.6628 91.5735 52.5562 91.6268 52.4496 91.6268C51.9166 91.6801 51.3835 91.7867 50.8505 91.84C49.8378 91.9466 48.7717 91.9999 47.759 92.0532C47.1726 91.9999 46.5863 91.9999 46 91.9999C45.0406 91.9999 44.0278 91.9466 43.0684 91.8933C42.9618 91.8933 42.8552 91.8933 42.7485 91.8933C41.6825 91.84 40.6165 91.7334 39.5504 91.5735C39.3372 91.5202 39.1773 91.5202 38.9641 91.4669L0.533024 53.0358Z" fill="#0BBE5F"/>
<path d="M91.4669 39.0174V39.0707C91.4669 39.124 91.4669 39.1773 91.5202 39.2839V39.3372C91.5202 39.4438 91.5735 39.4971 91.5735 39.6037V39.657V39.7103C91.5735 39.7636 91.5735 39.7636 91.5735 39.7636L91.6268 40.0301L91.6801 40.2434C91.6801 40.4566 91.7334 40.6165 91.7334 40.7764C91.7334 40.9363 91.7867 41.0962 91.7867 41.2561C91.7867 41.416 91.84 41.5226 91.84 41.6292V41.7358C91.84 41.8424 91.84 41.8957 91.84 42.0023V42.0556V42.1089C91.84 42.2155 91.84 42.3222 91.8933 42.4821V42.5354C91.8933 42.6953 91.9466 42.8552 91.9466 43.0684C91.9466 43.2283 91.9466 43.4415 91.9999 43.6014V43.6547V43.708V43.7613C91.9999 43.9212 91.9999 44.0811 91.9999 44.1877C91.9999 44.4009 91.9999 44.5609 91.9999 44.7741V44.8807C91.9999 45.0406 91.9999 45.1472 91.9999 45.3071V45.6269C91.9999 45.7335 91.9999 45.8401 91.9999 46C91.9999 46.1066 91.9999 46.2665 91.9999 46.3731V46.4797C91.8933 55.2213 88.3754 63.4299 82.139 69.5597C75.9026 75.6895 67.6407 79.1008 58.8458 79.1008C56.8203 79.1008 54.7948 78.9409 52.8759 78.5678C57.4066 75.8494 61.351 72.1715 64.4426 67.7474C68.92 61.3511 71.2653 53.8355 71.2653 45.9467C71.2653 38.1113 68.92 30.5956 64.4426 24.146C60.0718 17.9096 53.9953 13.1124 46.9061 10.394C42.5353 8.68832 37.898 7.83548 33.154 7.83548C26.2247 7.83548 19.5619 9.70107 13.752 13.1124H13.8053C13.8586 13.0591 13.8586 13.0591 13.9119 13.0058L14.0185 12.8992C14.0718 12.8459 14.1784 12.7393 14.2317 12.686C14.3383 12.5794 14.4982 12.4195 14.6581 12.3129C14.7647 12.2063 14.8713 12.153 14.9246 12.0464C15.0845 11.8865 15.2444 11.7266 15.4576 11.5667C15.5642 11.46 15.6708 11.3534 15.7774 11.2468L15.8307 11.1935L16.1506 10.927L16.2039 10.8737C16.3105 10.8204 16.3638 10.7138 16.4704 10.6605L16.5237 10.6072L16.577 10.5539C16.6303 10.5006 16.7369 10.394 16.8435 10.3407H16.8968H16.9501C17.0034 10.2874 17.11 10.2341 17.1633 10.1808C17.4298 9.96758 17.643 9.80766 17.9095 9.59445C17.9628 9.54115 18.0161 9.48785 18.0695 9.48785C18.1228 9.43455 18.1761 9.38125 18.2827 9.32794C18.336 9.27464 18.336 9.27464 18.3893 9.27464L18.4426 9.22134C18.5492 9.16804 18.6558 9.06143 18.7624 9.00813L18.869 8.95483C18.9223 8.90153 18.9756 8.90153 19.0289 8.84822C19.0822 8.79492 19.1888 8.74162 19.2421 8.68832L19.3487 8.63502C19.5619 8.47511 19.7218 8.36851 19.935 8.2086C20.0416 8.1553 20.0949 8.10199 20.2015 8.04869L20.2549 7.99538L20.4681 7.83548L20.6813 7.67558C20.7879 7.62227 20.8945 7.51566 21.0544 7.46236C21.161 7.40906 21.3209 7.30245 21.4275 7.24915H21.8539L22.3869 6.76943C22.4403 6.71613 22.5469 6.66283 22.6535 6.60953C22.8134 6.50292 22.9733 6.39632 23.1332 6.34301C23.2398 6.28971 23.3997 6.1831 23.5063 6.1298C24.1992 5.75668 24.8922 5.38356 25.5851 5.06375C25.745 5.01044 25.9049 4.90385 26.0648 4.85054C26.0648 4.85054 26.1181 4.85054 26.1181 4.79723C26.278 4.74393 26.3846 4.63733 26.5445 4.58403C26.971 4.37082 27.3974 4.15761 27.8771 3.9977C27.9837 3.9444 28.0903 3.8911 28.1969 3.8378C28.2502 3.8378 28.2502 3.78449 28.3035 3.78449C28.4634 3.73119 28.57 3.67789 28.7299 3.62459C29.1031 3.46468 29.4762 3.35807 29.8493 3.19817C29.9559 3.14486 30.1158 3.09157 30.2224 3.03826C30.8087 2.82505 31.3951 2.61184 31.9281 2.45193C32.0347 2.39863 32.1413 2.39863 32.2479 2.34533C32.4078 2.29203 32.5677 2.23872 32.7809 2.18542L32.9408 2.13212C33.154 2.07881 33.3673 2.02551 33.5272 1.97221C33.6338 1.91891 33.7404 1.91891 33.847 1.8656C35.1262 1.54579 36.4055 1.22598 37.6847 1.01277C37.8447 0.959465 38.0046 0.959465 38.2178 0.906166C38.431 0.852859 38.5909 0.852859 38.7508 0.799553C38.9107 0.746254 39.1239 0.746254 39.2838 0.746254C41.4159 0.426445 43.548 0.319832 45.7334 0.319832C47.8655 0.319832 50.0509 0.479744 52.183 0.746254H52.2363C52.3962 0.746254 52.5561 0.799553 52.7693 0.799553L91.2004 39.2306C91.4669 39.0174 91.4669 39.0174 91.4669 39.0174Z" fill="#363A52"/>
</g>
<defs>
<clipPath id="clip0_19_67">
<rect width="92" height="92" fill="white" transform="matrix(1 0 0 -1 0 92)"/>
</clipPath>
</defs>
</svg>
