<svg width="22" height="22" viewBox="0 0 22 22" fill="none" xmlns="http://www.w3.org/2000/svg">
<path d="M21 11C21 5.48 16.52 1 11 1C5.48 1 1 5.48 1 11C1 16.52 5.48 21 11 21" stroke="#353535" stroke-width="1.5" stroke-linecap="round" stroke-linejoin="round"/>
<path d="M7.00001 2H8.00001C6.05001 7.84 6.05001 14.16 8.00001 20H7.00001" stroke="#353535" stroke-width="1.5" stroke-linecap="round" stroke-linejoin="round"/>
<path d="M14 2C14.97 4.92 15.46 7.96 15.46 11" stroke="#353535" stroke-width="1.5" stroke-linecap="round" stroke-linejoin="round"/>
<path d="M2 15V14C4.92 14.97 7.96 15.46 11 15.46" stroke="#353535" stroke-width="1.5" stroke-linecap="round" stroke-linejoin="round"/>
<path d="M2 8.0001C7.84 6.0501 14.16 6.0501 20 8.0001" stroke="#353535" stroke-width="1.5" stroke-linecap="round" stroke-linejoin="round"/>
<path d="M17.2 20.4C18.9673 20.4 20.4 18.9673 20.4 17.2C20.4 15.4327 18.9673 14 17.2 14C15.4327 14 14 15.4327 14 17.2C14 18.9673 15.4327 20.4 17.2 20.4Z" stroke="#353535" stroke-width="1.5" stroke-linecap="round" stroke-linejoin="round"/>
<path d="M21 21L20 20" stroke="#353535" stroke-width="1.5" stroke-linecap="round" stroke-linejoin="round"/>
</svg>
