<svg width="24" height="39" viewBox="0 0 24 39" fill="none" xmlns="http://www.w3.org/2000/svg">
<path d="M6.49951 30.33H17.4983" stroke="#353535" stroke-width="2" stroke-linecap="round" stroke-linejoin="round"/>
<path d="M8.33276 37.6626H15.6653" stroke="#353535" stroke-width="2" stroke-linecap="round" stroke-linejoin="round"/>
<path d="M17.6632 22.9976C17.9931 21.2011 18.8547 19.808 20.2479 18.4148C21.1331 17.5999 21.8357 16.607 22.3096 15.5012C22.7835 14.3953 23.018 13.2017 22.9976 11.9988C22.9976 9.08174 21.8388 6.28415 19.7761 4.22147C17.7135 2.1588 14.9159 1 11.9988 1C9.08174 1 6.28415 2.1588 4.22147 4.22147C2.1588 6.28415 1 9.08174 1 11.9988C1 13.8319 1.42162 16.0867 3.7497 18.4148C5.07699 19.6284 5.98246 21.2339 6.33442 22.9976" stroke="#353535" stroke-width="2" stroke-linecap="round" stroke-linejoin="round"/>
</svg>
