<svg width="133" height="92" viewBox="0 0 133 92" fill="none" xmlns="http://www.w3.org/2000/svg">
<g clip-path="url(#clip0_19_107)">
<path d="M38.0331 1.52588e-05L34.5545 6.01385L6.95728 53.6619H0L31.0759 1.52588e-05H38.0331Z" fill="#363A52"/>
<path d="M65.8622 1.52588e-05L62.3836 6.01385L58.905 12.0277L55.4263 18.0415L51.9477 24.0553L48.469 30.0692L34.7864 53.6619H27.8291L44.9904 24.0553L48.469 18.0415L51.9477 12.0277L55.4263 6.01385L58.905 1.52588e-05H65.8622Z" fill="#363A52"/>
<path d="M76.2981 6.01385L72.8195 12.0277L69.3409 18.0415L65.8622 24.0553L62.3836 30.0692L58.9049 36.0252L55.4263 42.039L48.7009 53.6619H41.7437L51.9477 36.083L58.9049 24.0553L62.3836 18.0415L65.8622 12.0277L69.3409 6.01385L72.8195 1.52588e-05H79.7768L76.2981 6.01385Z" fill="#363A52"/>
<path d="M91.2566 92H84.2993L58.9053 48.1106L62.3839 42.0968L91.2566 92Z" fill="#08D565"/>
<path d="M44.9904 1.52588e-05H51.9477L48.469 6.01385L44.9904 12.0277L41.5118 18.0415L20.8718 53.6619H13.9146L38.0331 12.0277L41.5118 6.01385L44.9904 1.52588e-05Z" fill="#363A52"/>
<path d="M69.3414 30.127L105.171 92H98.2141L65.8628 36.1408L65.9208 36.0251L69.3414 30.127Z" fill="#08D565"/>
<path d="M76.2985 18.0993L119.086 92H112.128L72.8198 24.1131L72.8778 24.0553L76.2985 18.0993Z" fill="#08D565"/>
<path d="M133.001 92H126.043L79.7773 12.0855L79.8353 12.0277L83.256 6.07166L133.001 92Z" fill="#08D565"/>
</g>
<defs>
<clipPath id="clip0_19_107">
<rect width="133" height="92" fill="white" transform="matrix(1 0 0 -1 0 92)"/>
</clipPath>
</defs>
</svg>
