<svg width="28" height="26" viewBox="0 0 28 26" fill="none" xmlns="http://www.w3.org/2000/svg">
<path d="M24.9374 3.11671C24.2857 2.44578 23.5113 1.91344 22.6587 1.55021C21.8061 1.18698 20.892 1 19.9688 1C19.0456 1 18.1315 1.18698 17.2788 1.55021C16.4262 1.91344 15.6519 2.44578 15.0002 3.11671L14 4.15623L12.9998 3.11671C12.3481 2.44578 11.5738 1.91344 10.7212 1.55021C9.86854 1.18698 8.95442 1 8.03121 1C7.10801 1 6.19389 1.18698 5.34127 1.55021C4.48865 1.91344 3.71431 2.44578 3.06264 3.11671C0.308815 5.94208 0.139948 10.7132 3.60821 14.3382L14 25L24.3918 14.3382C27.8601 10.7132 27.6912 5.94208 24.9374 3.11671Z" stroke="#353535" stroke-width="2" stroke-linecap="round" stroke-linejoin="round"/>
</svg>
