<svg width="113" height="92" viewBox="0 0 113 92" fill="none" xmlns="http://www.w3.org/2000/svg">
<g clip-path="url(#clip0_19_116)">
<path d="M30.5989 66.0967H0L36.4775 25.752H67.0765L30.5989 66.0967ZM8.99377 62.1077H28.8404L58.0827 29.741H38.2361L8.99377 62.1077Z" fill="#08D565"/>
<path d="M61.3988 92L30.5989 67.6619H0L6.73277 72.9638C22.3086 85.2843 41.5522 92 61.3988 92Z" fill="#363A52"/>
<path d="M76.5218 66.248H45.9229L82.4004 25.9034H112.999L76.5218 66.248ZM54.9166 62.259H74.7632L104.006 29.8924H84.159L54.9166 62.259Z" fill="#08D565"/>
<path d="M112.999 24.3381L106.267 19.0363C98.4788 12.876 89.7865 8.12957 80.5415 4.89796C71.2965 1.66635 61.549 4.76837e-05 51.6006 4.76837e-05L82.4005 24.3381H112.999Z" fill="#363A52"/>
</g>
<defs>
<clipPath id="clip0_19_116">
<rect width="113" height="92" fill="white" transform="matrix(1 0 0 -1 0 92)"/>
</clipPath>
</defs>
</svg>
