<svg width="69" height="92" viewBox="0 0 69 92" fill="none" xmlns="http://www.w3.org/2000/svg">
<g clip-path="url(#clip0_19_62)">
<path d="M53.7508 39.3052V24.1878H15.5196C14.4922 24.1878 13.5729 24.2958 12.5995 24.4577C12.4373 24.5117 12.3292 24.5117 12.1669 24.5657C10.058 25.0516 8.05721 25.9155 6.38088 27.1573C2.54154 30.0188 0 34.554 0 39.6831V92C7.67868 87.6268 12.5995 79.4202 12.5995 70.4038V45.6761C12.5995 40.8169 16.547 36.8216 21.4679 36.8216H47.5321C49.9655 36.7676 52.1285 37.7394 53.7508 39.3052Z" fill="#363A52"/>
<path d="M68.9999 92V62.7911C66.2962 66.7864 62.0242 69.7019 56.9952 70.6737C56.7789 70.7277 56.6167 70.7277 56.4004 70.7817C56.5626 79.6361 61.4294 87.6808 68.9999 92Z" fill="#363A52"/>
<path d="M68.9998 52.263V-0.0539398C61.3211 4.3193 56.4003 12.5259 56.4003 21.5423V46.378C56.4003 51.2371 52.3987 55.2324 47.5319 55.2324H21.4677C19.0343 55.2324 16.8713 54.2606 15.249 52.6949V67.8123H53.4802C54.5076 67.8123 55.481 67.7043 56.4003 67.5423C63.5923 66.1385 68.9998 59.8216 68.9998 52.263Z" fill="#08D565"/>
<path d="M12.5995 21.2184C12.4373 12.3099 7.57053 4.26534 0 8.01086e-05V29.209C1.18966 27.4273 2.70376 25.8616 4.48825 24.5658C6.59718 23.0541 8.97649 21.9742 11.518 21.4343H11.6262C11.7884 21.3804 11.8966 21.3804 12.0047 21.3264C12.1669 21.2724 12.3832 21.2184 12.5995 21.2184Z" fill="#08D565"/>
</g>
<defs>
<clipPath id="clip0_19_62">
<rect width="69" height="92" fill="white" transform="matrix(1 0 0 -1 0 92)"/>
</clipPath>
</defs>
</svg>
