<svg width="16" height="16" viewBox="0 0 16 16" fill="none" xmlns="http://www.w3.org/2000/svg">
<path d="M8.02667 12.0267C5.66222 12.0267 4.60444 10.8622 4.60444 9.99111C4.60444 9.54667 4.93333 9.22667 5.38667 9.22667C6.4 9.22667 6.14222 10.6667 8.02667 10.6667C8.99556 10.6667 9.53778 10.16 9.53778 9.61778C9.53778 9.29778 9.37778 8.94222 8.73778 8.78222L6.63111 8.25778C4.93333 7.83111 4.62222 6.91556 4.62222 6.05333C4.62222 4.25778 6.31111 3.58222 7.89333 3.58222C9.33333 3.58222 11.0756 4.39111 11.0756 5.46667C11.0756 5.92889 10.6667 6.19556 10.2222 6.19556C9.33333 6.19556 9.51111 4.99556 7.76889 4.99556C6.90667 4.99556 6.42667 5.38667 6.42667 5.94667C6.42667 6.50667 7.11111 6.66667 7.69778 6.82667L9.26222 7.17333C10.9689 7.55556 11.4044 8.55111 11.4044 9.48444C11.4044 10.9422 10.2844 12.0267 8.02667 12.0267ZM13.3333 2.66667C15.1733 4.48 15.8667 7.01333 15.4311 9.37778C15.7956 10.0178 16 10.7644 16 11.5556C16 12.7343 15.5317 13.8648 14.6983 14.6983C13.8648 15.5317 12.7343 16 11.5556 16C10.7644 16 10.0178 15.7956 9.37778 15.4311C7.01333 15.8667 4.48 15.1733 2.66667 13.3333C0.826667 11.52 0.133333 8.98667 0.568889 6.62222C0.204445 5.98222 0 5.23556 0 4.44444C0 3.2657 0.468253 2.13524 1.30175 1.30175C2.13524 0.468253 3.2657 0 4.44444 0C5.23556 0 5.98222 0.204445 6.62222 0.568889C8.98667 0.133333 11.52 0.826667 13.3333 2.66667ZM4.44444 1.77778C3.7372 1.77778 3.05892 2.05873 2.55883 2.55883C2.05873 3.05892 1.77778 3.7372 1.77778 4.44444C1.77778 5.14667 2.04444 5.77778 2.48889 6.25778C1.86667 8.24889 2.33778 10.5067 3.91111 12.0889C4.66104 12.835 5.6007 13.362 6.62846 13.6126C7.65623 13.8633 8.73297 13.8282 9.74222 13.5111C10.2222 13.9556 10.8533 14.2222 11.5556 14.2222C12.2628 14.2222 12.9411 13.9413 13.4412 13.4412C13.9413 12.9411 14.2222 12.2628 14.2222 11.5556C14.2222 10.8533 13.9556 10.2222 13.5111 9.74222C14.1333 7.75111 13.6622 5.49333 12.0889 3.91111C11.339 3.16496 10.3993 2.63805 9.37154 2.38737C8.34377 2.1367 7.26703 2.1718 6.25778 2.48889C5.77778 2.04444 5.14667 1.77778 4.44444 1.77778Z" fill="#686C7C"/>
</svg>
