<svg width="109" height="92" viewBox="0 0 109 92" fill="none" xmlns="http://www.w3.org/2000/svg">
<g clip-path="url(#clip0_19_57)">
<path d="M48.9353 71.9911L58.5903 55.2916C59.6575 55.2916 60.7754 55.3426 61.8934 55.3426C64.6882 55.3426 67.4831 55.2916 70.2271 55.1389L48.9353 92L25.6108 51.4732C29.6761 52.3896 33.9446 53.1533 38.4672 53.7643L48.9353 71.9911ZM31.6579 55.8517L48.9353 85.8395L64.7899 58.3464C63.8244 58.3464 62.8589 58.3464 61.8425 58.3464C61.3344 58.3464 60.8262 58.3464 60.3181 58.3464L51.5777 73.5185L48.9353 78.1516L46.2929 73.5185L36.5362 56.6154C34.8593 56.4117 33.2332 56.1572 31.6579 55.8517Z" fill="#3E435C"/>
<path d="M34.6056 3.43323e-05C22.5622 5.295 15.1939 12.3719 15.1939 20.2125C15.1939 22.8091 16.007 25.3039 17.5315 27.7477H85.9804L73.5305 49.3858C78.2564 49.7931 83.1855 49.9967 88.2163 49.9967C94.9748 49.9967 101.53 49.6403 107.78 48.9275C107.425 49.0294 107.069 49.1312 106.662 49.2839C107.018 49.1821 107.374 49.0803 107.78 48.9275C108.187 48.8766 108.593 48.8257 109.051 48.7748C107.933 49.0294 106.815 49.3348 105.697 49.5894C95.5338 51.8805 83.8462 53.1533 71.3963 53.1533C71.3455 53.1533 71.2438 53.1533 71.193 53.1533C68.3473 53.1533 65.5524 53.1024 62.8084 52.9497C61.8937 52.8988 60.979 52.8478 60.0643 52.7969C51.3748 52.2369 43.2443 51.0659 35.9268 49.3858C35.317 49.233 34.6564 49.0803 34.0466 48.9275C29.6765 47.8584 25.662 46.5855 22.0033 45.2109C8.43543 39.9668 0 32.6353 0 24.5402C0 14.103 13.8727 4.98952 34.6056 3.43323e-05ZM62.7068 48.062L68.703 37.6757H29.2191C37.5529 42.3597 49.1897 46.0255 62.7068 48.062Z" fill="#08D565"/>
</g>
<defs>
<clipPath id="clip0_19_57">
<rect width="109" height="92" fill="white" transform="matrix(1 0 0 -1 0 92)"/>
</clipPath>
</defs>
</svg>
